<svg width="20" height="14" viewBox="0 0 20 14" fill="none" xmlns="http://www.w3.org/2000/svg">
<path d="M17.6079 5.211C18.5743 6.22772 18.5743 7.77244 17.6079 8.78917C15.9781 10.504 13.1789 12.8334 9.99935 12.8334C6.81975 12.8334 4.02059 10.504 2.39077 8.78917C1.42443 7.77244 1.42443 6.22772 2.39077 5.211C4.02059 3.49619 6.81975 1.16675 9.99935 1.16675C13.1789 1.16675 15.9781 3.49619 17.6079 5.211Z" stroke="inherit" stroke-width="1.5"/>
<path d="M12.4993 7.00008C12.4993 8.38079 11.3801 9.50008 9.99935 9.50008C8.61864 9.50008 7.49935 8.38079 7.49935 7.00008C7.49935 5.61937 8.61864 4.50008 9.99935 4.50008C11.3801 4.50008 12.4993 5.61937 12.4993 7.00008Z" stroke="inherit" stroke-width="1.5"/>
</svg>
