<svg width="20" height="14" viewBox="0 0 20 14" xmlns="http://www.w3.org/2000/svg">
<path d="M19.8791 6.38189C17.9962 2.70793 14.2684 0.222168 9.99998 0.222168C5.73158 0.222168 2.00276 2.70967 0.120814 6.38224C0.0413845 6.53936 0 6.71295 0 6.88901C0 7.06507 0.0413845 7.23866 0.120814 7.39578C2.0038 11.0697 5.73158 13.5555 9.99998 13.5555C14.2684 13.5555 17.9972 11.068 19.8791 7.39543C19.9586 7.23831 20 7.06472 20 6.88866C20 6.7126 19.9586 6.53901 19.8791 6.38189ZM9.99998 11.8888C9.01108 11.8888 8.04438 11.5956 7.22213 11.0462C6.39988 10.4968 5.75902 9.71588 5.38058 8.80225C5.00215 7.88862 4.90313 6.88329 5.09606 5.91338C5.28898 4.94348 5.76518 4.05256 6.46445 3.3533C7.16371 2.65404 8.05462 2.17783 9.02453 1.98491C9.99443 1.79198 10.9998 1.891 11.9134 2.26944C12.827 2.64788 13.6079 3.28874 14.1573 4.11098C14.7067 4.93323 15 5.89993 15 6.88883C15.0003 7.54553 14.8712 8.19586 14.62 8.80263C14.3689 9.4094 14.0006 9.96072 13.5362 10.4251C13.0719 10.8894 12.5205 11.2577 11.9138 11.5089C11.307 11.76 10.6567 11.8892 9.99998 11.8888ZM9.99998 3.5555C9.70246 3.55966 9.40685 3.60392 9.12116 3.6871C9.35666 4.00712 9.46966 4.40095 9.43969 4.79715C9.40972 5.19335 9.23875 5.56569 8.95779 5.84665C8.67684 6.1276 8.3045 6.29857 7.9083 6.32854C7.51209 6.35852 7.11827 6.24551 6.79824 6.01002C6.61601 6.6814 6.64891 7.39303 6.8923 8.04474C7.1357 8.69645 7.57733 9.25542 8.15505 9.64299C8.73277 10.0306 9.41749 10.2272 10.1128 10.2052C10.8081 10.1833 11.4791 9.9438 12.0312 9.52054C12.5833 9.09728 12.9888 8.51155 13.1905 7.84578C13.3923 7.18 13.3802 6.46772 13.156 5.80917C12.9317 5.15063 12.5066 4.57899 11.9405 4.17471C11.3743 3.77043 10.6957 3.55386 9.99998 3.5555Z" fill="inherit"/>
</svg>
