<svg width="12" height="22" viewBox="0 0 12 22" xmlns="http://www.w3.org/2000/svg">
<path d="M8.18541 15.7606C9.28905 15.5069 10.3433 15.0658 11.3015 14.4568C12.0234 13.9686 12.2173 12.9815 11.7343 12.2518C11.2704 11.55 10.3459 11.3382 9.62661 11.7679C7.41939 13.1635 4.61487 13.1635 2.40765 11.7679C1.67448 11.3006 0.706771 11.5228 0.243661 12.2622C0.243661 12.264 0.243661 12.2657 0.241951 12.2666C-0.220289 13.0078 -0.00041821 13.987 0.732722 14.4542L0.734461 14.456C1.69092 15.0641 2.74434 15.506 3.84711 15.758L0.847861 18.79C0.235891 19.3982 0.224641 20.3913 0.823621 21.01L0.849572 21.0362C1.14735 21.346 1.5507 21.5 1.95234 21.5C2.35485 21.5 2.75733 21.346 3.05595 21.0362L6.01713 18.0576L8.96358 21.038C9.5868 21.6461 10.5822 21.6295 11.1847 20.9986C11.7716 20.3835 11.7716 19.4078 11.1847 18.7935L8.18541 15.7606ZM6.01713 11.34C8.97744 11.3365 11.3751 8.9126 11.3794 5.92085C11.3794 2.93261 8.97309 0.5 6.01713 0.5C3.06114 0.5 0.654841 2.93261 0.654841 5.92259C0.659161 8.91524 3.05769 11.3391 6.01713 11.3408V11.34ZM6.01713 3.67727C7.24281 3.67901 8.23563 4.68356 8.2365 5.92172C8.2365 7.16078 7.24281 8.16443 6.01713 8.1662C4.79232 8.16443 3.7995 7.16165 3.79689 5.92259C3.79863 4.68266 4.79232 3.67901 6.01713 3.67637V3.67727Z" fill="inherit"/>
</svg>
