<svg width="1991" height="1002" viewBox="0 0 1991 1002" fill="none" xmlns="http://www.w3.org/2000/svg">
<g opacity="0.13">
<path d="M1692.95 458.707C1678.17 281.698 1442.68 160.65 1261.22 155.942C1052.11 150.54 965.269 300.968 808.695 248.195C665.81 200.088 665.14 50.1397 559.69 22.4679C462.778 -2.95833 302.858 81.5491 23.5812 519.508" stroke="white" stroke-miterlimit="10"/>
<path d="M34.9132 539.446C310.743 107.837 470.936 19.8374 569.449 41.3062C642.457 57.3208 667.034 131.064 721.708 190.067C748.95 220.405 783.222 243.199 821.446 256.402C946.645 299.751 1026.96 217.517 1164.84 186.208C1199.99 178.12 1235.87 174.285 1271.76 174.781C1454.1 176.691 1687.68 282.747 1706.53 453.489" stroke="white" stroke-miterlimit="10"/>
<path d="M46.2912 559.324C318.672 134.097 479.047 42.6338 578.954 60.1674C652.392 73.0625 678.839 143.406 733.784 199.528C761.771 228.841 796.017 251.097 833.914 264.599C957.245 308.515 1037.09 234.728 1175.35 205.139C1210.49 197.544 1246.24 193.691 1282.03 193.642C1465.27 193.332 1696.94 283.788 1719.85 448.261" stroke="white" stroke-miterlimit="10"/>
<path d="M57.6305 579.143C326.498 160.39 487.143 65.4966 588.566 79.0083C662.491 88.8468 690.691 155.726 745.994 208.999C774.663 237.267 808.858 258.997 846.398 272.801C967.98 317.29 1047.08 251.909 1185.87 224.075C1221.03 216.894 1256.69 212.993 1292.42 212.42C1476.53 209.557 1706.28 284.745 1733.25 442.949" stroke="white" stroke-miterlimit="10"/>
<path d="M68.9703 599.112C334.393 186.657 495.186 88.3911 598.213 97.8843C672.536 104.693 702.637 168.112 758.272 218.444C787.645 245.683 821.85 266.91 859.097 281.013C978.929 326.074 1057.38 269.133 1196.76 243.027C1231.85 236.342 1267.34 232.431 1302.92 231.328C1487.94 225.911 1715.76 285.861 1746.83 437.796" stroke="white" stroke-miterlimit="10"/>
<path d="M80.1833 619.016C342.247 212.93 503.461 108.35 607.85 116.739C682.368 122.641 714.582 180.294 770.478 227.924C800.54 254.087 834.755 274.809 871.695 289.228C989.777 334.86 1067.52 286.357 1207.28 262.003C1242.33 255.734 1277.71 251.782 1313.18 250.172C1499.11 242.08 1725 286.884 1760.13 432.577" stroke="white" stroke-miterlimit="10"/>
<path d="M91.6773 638.931C350.143 239.237 511.251 134.414 617.48 135.444C692.487 136.555 726.59 192.664 782.725 237.441C813.443 262.515 847.67 282.745 884.305 297.477C1000.64 343.68 1077.75 303.588 1217.93 280.986C1252.95 275.17 1288.21 271.198 1323.57 269.084C1510.4 258.44 1734.37 287.886 1773.57 427.397" stroke="white" stroke-miterlimit="10"/>
<path d="M103.013 658.839C357.941 265.509 519.259 157.257 627.112 154.483C702.462 152.442 738.662 204.763 794.965 246.895C826.314 270.859 860.57 290.587 896.911 305.604C1011.46 352.407 1087.95 320.787 1228.58 299.846C1261.29 295.012 1296.19 290.505 1333.95 287.844C1521.72 274.557 1743.73 288.978 1786.99 422.156" stroke="white" stroke-miterlimit="10"/>
<path d="M114.353 678.749C365.89 291.825 527.253 180.446 636.729 173.29C712.438 168.37 750.764 216.904 807.269 256.332C839.25 279.173 873.553 298.437 909.605 313.805C1022.4 361.177 1098.22 337.935 1239.31 318.81C1272.15 314.347 1306.95 309.897 1344.45 306.708C1532.89 290.8 1753.08 290.052 1800.42 416.924" stroke="white" stroke-miterlimit="10"/>
<path d="M125.721 698.632C373.778 318.113 535.247 203.579 646.365 192.255C722.402 184.487 763.008 229.117 819.416 265.861C851.987 287.563 886.331 306.375 922.083 322.095C1033.16 370.038 1108.32 355.234 1249.86 337.711C1282.69 333.612 1317.52 329.164 1354.74 325.478C1544.3 306.813 1762.45 290.949 1813.84 411.577" stroke="white" stroke-miterlimit="10"/>
<path d="M137.061 718.542C381.639 344.402 543.241 226.777 655.92 211.131C732.283 200.546 775.054 241.208 831.596 275.397C864.752 295.916 899.163 314.264 934.626 330.332C1043.92 378.842 1118.44 372.446 1260.43 356.829C1293.39 353.162 1328.13 348.681 1365.05 344.527C1555.53 323.098 1771.7 292.185 1827.22 406.539" stroke="white" stroke-miterlimit="10"/>
<path d="M148.404 738.455C389.531 370.729 551.297 249.987 665.625 230.023C742.341 216.652 787.31 253.286 843.867 284.916C876.38 303.085 909.683 321.437 947.289 338.584C1054.84 387.631 1128.69 389.702 1271.13 375.808C1304.15 372.539 1338.84 368.026 1375.55 363.408C1566.94 339.217 1781.18 293.258 1840.73 401.366" stroke="white" stroke-miterlimit="10"/>
<path d="M159.74 758.366C397.411 397.149 559.134 273.253 675.231 248.946C752.302 232.76 799.561 265.309 856.1 294.44C889.464 311.636 922.881 329.503 959.884 346.838C1065.68 396.544 1138.86 406.928 1281.77 394.788C1314.85 391.948 1349.51 387.404 1385.86 382.285C1578.14 355.27 1790.47 294.331 1854.08 396.193" stroke="white" stroke-miterlimit="10"/>
<path d="M171.018 778.275C405.274 423.36 567.296 296.569 684.838 267.878C762.259 248.969 811.814 277.312 868.333 304.005C902.581 320.167 936.081 337.579 972.36 355.128C1076.44 405.31 1148.9 424.216 1292.39 413.835C1325.58 411.364 1360.15 406.787 1396.22 401.232C1589.42 371.335 1799.81 295.419 1867.49 391.036" stroke="white" stroke-miterlimit="10"/>
<path d="M182.446 798.163C413.161 449.672 575.247 319.949 694.476 286.794C772.278 265.134 824.1 289.239 880.537 313.522C915.67 328.621 949.309 345.641 985.073 363.381C1087.34 414.125 1159.21 441.434 1303.03 432.801C1337.72 430.349 1372.3 426.08 1406.62 420.009C1600.68 387.381 1809.24 296.589 1880.9 385.865" stroke="white" stroke-miterlimit="10"/>
<path d="M193.783 818.078C421.045 476.019 583.439 343.256 703.993 305.716C782.175 281.336 836.297 301.146 892.797 323.085C928.817 337.091 962.535 353.715 997.665 371.671C1098.21 422.981 1169.4 458.716 1313.59 451.803C1348.23 449.811 1382.75 445.536 1416.92 439.004C1611.94 403.254 1818.49 297.707 1894.33 380.62" stroke="white" stroke-miterlimit="10"/>
<path d="M205.126 837.99C428.907 502.337 591.624 366.782 713.722 324.655C792.22 297.615 848.679 313.01 905.004 332.627C941.912 345.509 975.704 361.829 1010.23 379.972C1108.99 431.844 1179.56 475.974 1324.28 470.816C1358.86 469.243 1393.32 464.931 1427.35 457.918C1623.16 419.347 1827.82 298.874 1907.73 375.632" stroke="white" stroke-miterlimit="10"/>
<path d="M216.492 857.928C436.772 529.012 599.548 390.49 723.293 343.93C802.254 314.193 860.927 325.134 917.156 342.515C955.071 354.211 988.846 370.215 1022.76 388.565C1119.77 440.912 1189.64 493.494 1334.82 490.092C1369.35 488.92 1403.75 484.573 1437.62 477.103C1634.28 435.587 1837.04 300.36 1921 370.837" stroke="white" stroke-miterlimit="10"/>
<path d="M227.833 877.865C444.507 555.398 607.648 414.259 732.891 363.297C812.251 330.925 873.141 337.358 929.328 352.6C968.037 363.195 1002.03 378.832 1035.29 397.357C1130.53 450.298 1199.74 511.201 1345.36 509.46C1379.82 508.688 1414.17 504.306 1447.88 496.38C1645.39 451.892 1846.39 302.09 1934.26 366.198" stroke="white" stroke-miterlimit="10"/>
<path d="M239.172 897.799C452.497 581.929 615.775 438.014 742.465 382.44C822.284 347.409 885.365 349.279 941.513 362.325C981.12 371.551 1015.15 387.088 1047.82 405.851C1141.27 459.324 1209.83 528.567 1355.89 528.638C1390.29 528.282 1424.6 523.862 1458.14 515.467C1656.48 467.919 1855.46 303.429 1947.52 361.341" stroke="white" stroke-miterlimit="10"/>
<path d="M250.541 917.704C460.37 608.406 623.892 461.899 751.944 401.656C832.19 364.027 897.434 361.278 953.538 372.221C994.041 380.111 1028.16 395.49 1060.2 414.368C1151.92 468.409 1219.82 546.012 1366.31 547.8C1400.65 547.827 1434.93 543.371 1468.31 534.539C1667.34 483.685 1864.54 304.985 1960.71 356.588" stroke="white" stroke-miterlimit="10"/>
<path d="M261.848 937.636C596.71 446.253 819.629 358.947 965.827 382.123C1125.42 407.418 1178.64 562.246 1376.95 567.049C1609.58 572.65 1856.87 298.841 1974.02 351.882" stroke="white" stroke-miterlimit="10"/>
</g>
</svg>
