<svg width="1996" height="1002" viewBox="0 0 1996 1002" fill="none" xmlns="http://www.w3.org/2000/svg">
<path d="M1693.12 457.485C1679.57 278.824 1445.34 157.419 1264.25 153.289C1055.55 148.552 967.847 300.726 811.919 247.982C669.622 199.903 669.972 48.5143 564.904 20.938C468.343 -4.4002 308.141 81.4692 26.3998 524.601" stroke="#004FAE" stroke-opacity="0.02" stroke-width="3" stroke-miterlimit="10"/>
<path d="M37.7331 544.542C315.991 107.831 476.488 18.4348 574.675 39.7721C647.44 55.6903 671.471 130.059 725.645 189.443C752.631 219.979 786.685 242.875 824.749 256.073C949.424 299.41 1030.15 216.109 1167.99 184.026C1203.13 175.739 1238.98 171.744 1274.79 172.122C1456.79 173.424 1689.22 279.7 1706.87 452.021" stroke="#004FAE" stroke-opacity="0.02" stroke-width="3" stroke-miterlimit="10"/>
<path d="M49.11 564.421C323.881 134.166 484.585 41.2721 584.189 58.6316C657.406 71.3988 683.325 142.329 737.788 198.802C765.525 228.301 799.558 250.654 837.293 264.156C960.1 308.072 1040.3 233.3 1178.51 202.952C1213.63 195.163 1249.35 191.15 1285.07 190.978C1467.97 190.037 1698.61 280.568 1720.36 446.546" stroke="#004FAE" stroke-opacity="0.02" stroke-width="3" stroke-miterlimit="10"/>
<path d="M60.4492 584.242C331.67 160.536 492.666 64.1782 593.811 77.472C667.534 87.1515 695.228 154.577 750.067 208.173C778.491 236.616 812.476 258.437 849.854 272.245C970.911 316.745 1050.31 250.463 1189.04 221.885C1224.17 214.515 1259.8 210.454 1295.47 209.753C1479.26 206.229 1708.08 281.353 1733.93 440.988" stroke="#004FAE" stroke-opacity="0.02" stroke-width="3" stroke-miterlimit="10"/>
<path d="M71.7889 604.215C339.528 186.881 500.694 87.1183 603.468 96.3492C677.608 102.969 707.223 166.894 762.414 217.519C791.547 244.92 825.546 266.233 862.629 280.344C981.935 325.427 1060.63 267.669 1199.93 240.834C1235 233.964 1270.45 229.893 1305.98 228.658C1490.69 222.553 1717.69 282.299 1747.67 435.589" stroke="#004FAE" stroke-opacity="0.02" stroke-width="3" stroke-miterlimit="10"/>
<path d="M83.002 624.123C347.344 213.234 508.972 107.097 613.114 115.207C687.455 120.911 719.217 179.007 774.687 226.903C804.516 253.214 838.527 274.018 875.302 288.449C992.857 334.114 1070.78 284.878 1210.46 259.81C1245.49 253.36 1280.82 249.249 1316.24 247.502C1501.88 238.694 1727.05 283.154 1761.14 430.126" stroke="#004FAE" stroke-opacity="0.02" stroke-width="3" stroke-miterlimit="10"/>
<path d="M94.4952 644.041C355.201 239.624 516.725 133.242 622.752 133.917C697.614 134.782 731.273 191.312 787 236.325C817.491 261.535 851.518 281.842 887.985 296.59C1003.79 342.836 1081.04 302.095 1221.11 278.795C1256.1 272.803 1291.32 268.672 1326.63 266.416C1513.19 255.029 1736.55 283.988 1774.73 424.703" stroke="#004FAE" stroke-opacity="0.02" stroke-width="3" stroke-miterlimit="10"/>
<path d="M105.832 663.953C362.963 265.978 524.719 156.135 632.392 152.964C707.617 150.644 743.395 203.343 799.308 245.686C830.436 269.771 864.495 289.571 900.667 304.608C1014.69 351.465 1091.26 319.279 1231.76 297.655C1264.45 292.663 1299.31 287.993 1337.02 285.176C1524.54 271.118 1746.03 284.915 1788.32 419.22" stroke="#004FAE" stroke-opacity="0.02" stroke-width="3" stroke-miterlimit="10"/>
<path d="M117.171 683.867C370.872 292.38 532.694 179.381 642.016 171.781C717.62 166.554 755.545 215.42 811.677 255.032C843.444 277.981 877.553 297.312 913.433 312.703C1025.7 360.141 1101.54 336.416 1242.49 316.623C1275.31 312.005 1310.08 307.393 1347.52 304.045C1535.72 287.337 1755.52 285.826 1801.9 413.749" stroke="#004FAE" stroke-opacity="0.02" stroke-width="3" stroke-miterlimit="10"/>
<path d="M128.539 703.755C378.721 318.753 540.669 202.572 651.658 190.758C727.607 182.655 767.835 227.572 823.889 264.472C856.252 286.27 890.405 305.143 925.984 320.891C1036.53 368.909 1111.65 353.706 1253.05 335.529C1285.84 331.279 1320.64 326.669 1357.82 322.82C1547.16 303.326 1765 286.561 1815.48 408.164" stroke="#004FAE" stroke-opacity="0.02" stroke-width="3" stroke-miterlimit="10"/>
<path d="M139.88 723.671C386.544 345.131 548.645 225.832 661.22 209.65C737.512 198.701 779.928 239.603 836.133 273.924C869.088 294.524 903.31 312.928 938.599 329.028C1047.36 377.623 1121.78 370.911 1263.62 354.657C1296.54 350.842 1331.25 346.199 1368.13 341.878C1558.39 319.592 1774.38 287.641 1829.02 402.893" stroke="#004FAE" stroke-opacity="0.02" stroke-width="3" stroke-miterlimit="10"/>
<path d="M151.224 743.591C394.397 371.549 556.68 249.105 670.931 228.559C747.594 214.797 792.231 251.624 848.468 283.36C880.796 301.59 913.913 320.001 951.332 337.181C1058.35 386.324 1132.05 388.162 1274.32 373.646C1307.3 370.233 1341.95 365.558 1378.62 360.769C1569.82 335.691 1783.97 288.56 1842.68 397.488" stroke="#004FAE" stroke-opacity="0.02" stroke-width="3" stroke-miterlimit="10"/>
<path d="M162.56 763.507C402.237 398.062 564.497 272.439 680.542 247.504C757.578 230.9 804.527 263.594 860.763 292.806C893.947 310.049 927.181 327.97 963.996 345.342C1069.25 395.153 1142.23 405.384 1284.95 392.638C1317.99 389.658 1352.61 384.951 1388.93 379.659C1581.03 351.728 1793.38 289.484 1856.18 392.089" stroke="#004FAE" stroke-opacity="0.02" stroke-width="3" stroke-miterlimit="10"/>
<path d="M173.836 783.424C410.058 424.366 572.635 295.825 690.151 266.46C767.554 247.107 816.823 275.546 873.054 302.295C907.127 318.492 940.446 335.953 976.537 353.542C1080.08 403.838 1152.28 422.672 1295.57 411.7C1328.71 409.092 1363.24 404.353 1399.29 398.622C1592.33 367.779 1802.83 290.426 1869.74 386.709" stroke="#004FAE" stroke-opacity="0.02" stroke-width="3" stroke-miterlimit="10"/>
<path d="M185.265 803.32C417.906 450.774 580.564 319.281 699.791 285.406C777.593 263.275 829.153 287.428 885.318 311.743C920.282 326.863 953.741 343.926 989.317 361.708C1091.04 412.576 1162.59 439.893 1306.19 430.684C1340.84 428.091 1375.38 423.662 1409.68 417.417C1603.59 383.815 1812.37 291.457 1883.29 381.321" stroke="#004FAE" stroke-opacity="0.02" stroke-width="3" stroke-miterlimit="10"/>
<path d="M196.602 823.243C425.749 477.221 588.732 342.665 709.31 304.361C787.507 279.485 841.392 299.293 897.635 321.242C933.491 335.253 967.031 351.916 1001.97 369.919C1101.98 421.36 1172.78 457.182 1316.75 449.708C1351.34 447.578 1385.82 443.144 1419.97 436.434C1614.85 399.681 1821.73 292.441 1896.86 375.864" stroke="#004FAE" stroke-opacity="0.02" stroke-width="3" stroke-miterlimit="10"/>
<path d="M207.944 843.166C433.569 503.642 596.89 366.275 719.038 323.338C797.568 295.778 853.813 311.121 909.896 330.725C946.646 343.598 980.262 359.953 1014.6 378.144C1112.82 430.155 1182.95 474.45 1327.43 468.746C1361.95 467.039 1396.38 462.568 1430.38 455.374C1626.08 415.772 1831.16 293.482 1910.39 370.673" stroke="#004FAE" stroke-opacity="0.02" stroke-width="3" stroke-miterlimit="10"/>
<path d="M219.311 863.136C441.376 530.508 604.763 390.182 728.576 342.777C807.579 312.5 866.061 323.337 922.06 340.68C959.82 352.35 993.418 368.381 1027.14 386.779C1123.6 439.26 1192.98 492.073 1337.89 488.139C1372.35 486.837 1406.72 482.332 1440.57 474.679C1637.12 432.111 1840.39 294.971 1923.7 365.79" stroke="#004FAE" stroke-opacity="0.02" stroke-width="3" stroke-miterlimit="10"/>
<path d="M230.651 883.106C449.053 557.082 612.809 414.149 738.135 362.31C817.548 329.382 878.269 335.66 934.236 350.841C972.793 361.393 1006.61 377.049 1039.67 395.62C1134.36 448.692 1203.02 509.886 1348.34 507.626C1382.73 506.728 1417.05 502.189 1450.74 494.078C1648.14 448.519 1849.73 296.717 1936.98 361.079" stroke="#004FAE" stroke-opacity="0.02" stroke-width="3" stroke-miterlimit="10"/>
<path d="M241.99 903.072C456.985 583.795 620.881 438.098 747.673 381.616C827.556 346.012 890.488 347.678 946.427 360.64C985.886 369.806 1019.74 385.356 1052.21 404.164C1145.1 457.766 1213.04 527.355 1358.79 526.92C1393.12 526.441 1427.38 521.866 1460.91 513.284C1659.14 464.646 1858.79 298.076 1950.27 356.158" stroke="#004FAE" stroke-opacity="0.02" stroke-width="3" stroke-miterlimit="10"/>
<path d="M253.359 923.007C464.801 610.446 628.944 462.171 757.115 400.988C837.435 362.772 902.551 359.774 958.456 370.612C998.815 378.426 1032.76 393.812 1064.6 412.734C1155.75 466.898 1222.97 544.901 1369.12 546.194C1403.38 546.103 1437.62 541.491 1470.99 532.471C1669.91 480.508 1867.87 299.659 1963.48 351.35" stroke="#004FAE" stroke-opacity="0.02" stroke-width="3" stroke-miterlimit="10"/>
<path d="M264.667 942.969C602.057 446.513 825.045 357.736 970.748 380.587C1129.8 405.528 1181.85 561.401 1379.67 565.551C1611.73 570.387 1860.28 293.541 1976.8 346.595" stroke="#004FAE" stroke-opacity="0.02" stroke-width="3" stroke-miterlimit="10"/>
</svg>
