<svg width="14" height="10" viewBox="0 0 14 10" fill="none" xmlns="http://www.w3.org/2000/svg">
<path d="M11.8692 0.350763L5.13896 6.82141L2.18573 3.72409C2.06846 3.59674 1.92817 3.49516 1.77307 3.42528C1.61797 3.35541 1.45115 3.31862 1.28235 3.31709C1.11354 3.31555 0.946139 3.34928 0.789901 3.41633C0.633663 3.48337 0.49172 3.58237 0.372355 3.70756C0.252989 3.83275 0.158591 3.98162 0.0946689 4.14548C0.0307469 4.30934 -0.00141884 4.48491 4.80005e-05 4.66195C0.00151485 4.83899 0.0365853 5.01395 0.103213 5.17662C0.16984 5.33929 0.266691 5.48642 0.388113 5.60941L4.20201 9.6094C4.43368 9.85242 4.74587 9.99223 5.07345 9.99969C5.40104 10.0071 5.71871 9.88165 5.96021 9.6494L13.588 2.31609C13.8365 2.07704 13.9843 1.74426 13.9988 1.39094C14.0134 1.03762 13.8935 0.692716 13.6656 0.432097C13.4376 0.171478 13.1203 0.016495 12.7834 0.00124211C12.4466 -0.0140108 12.1177 0.111715 11.8692 0.350763Z" fill="white"/>
</svg>
