<svg width="40" height="41" viewBox="0 0 40 41" fill="none" xmlns="http://www.w3.org/2000/svg">
<path fill-rule="evenodd" clip-rule="evenodd" d="M19.9993 38.8334C9.87413 38.8334 1.66602 30.6253 1.66602 20.5001C1.66602 10.3749 9.87413 2.16675 19.9993 2.16675C30.1246 2.16675 38.3327 10.3749 38.3327 20.5001C38.3327 30.6253 30.1246 38.8334 19.9993 38.8334ZM19.9993 35.5001C28.2836 35.5001 34.9994 28.7844 34.9994 20.5001C34.9994 12.2158 28.2836 5.50008 19.9993 5.50008C11.7151 5.50008 4.99935 12.2158 4.99935 20.5001C4.99935 28.7844 11.7151 35.5001 19.9993 35.5001ZM29.3012 11.1982L24.6503 25.151L10.6975 29.802L15.3484 15.8491L29.3012 11.1982ZM15.9679 24.5315L22.0151 22.5158L24.0308 16.4686L17.9836 18.4844L15.9679 24.5315Z" fill="#0074FF"/>
</svg>
