<svg width="56" height="56" viewBox="0 0 56 56" fill="none" xmlns="http://www.w3.org/2000/svg">
<path d="M28.434 33.9546C26.9943 33.9546 26.1543 35.3243 26.1543 37.1583C26.1543 39.0039 27.02 40.3083 28.448 40.3083C29.8876 40.3083 30.7136 38.9363 30.7136 37.1023C30.7136 35.4083 29.9016 33.9546 28.434 33.9546Z" fill="#0074FF"/>
<path d="M32.6663 4.6665H13.9997C12.762 4.6665 11.575 5.15817 10.6998 6.03334C9.82467 6.90851 9.33301 8.09549 9.33301 9.33317V46.6665C9.33301 47.9042 9.82467 49.0912 10.6998 49.9663C11.575 50.8415 12.762 51.3332 13.9997 51.3332H41.9997C43.2374 51.3332 44.4243 50.8415 45.2995 49.9663C46.1747 49.0912 46.6663 47.9042 46.6663 46.6665V18.6665L32.6663 4.6665ZM21.3613 40.7258C20.3673 41.5518 18.8577 41.9415 17.012 41.9415C15.9037 41.9415 15.122 41.8715 14.59 41.8015V32.5358C15.5443 32.3984 16.5076 32.3337 17.4717 32.3422C19.2637 32.3422 20.4257 32.6642 21.3333 33.3502C22.3133 34.0782 22.9293 35.2402 22.9293 36.9015C22.9293 38.7098 22.2713 39.9558 21.3613 40.7258ZM28.338 41.9998C25.538 41.9998 23.9023 39.8858 23.9023 37.1978C23.9023 34.3722 25.706 32.2605 28.492 32.2605C31.3877 32.2605 32.9697 34.4282 32.9697 37.0322C32.9673 40.1238 31.0913 41.9998 28.338 41.9998ZM39.1997 40.2218C39.8413 40.2218 40.5553 40.0795 40.9777 39.9138L41.2997 41.5775C40.9077 41.7735 40.0257 41.9835 38.88 41.9835C35.6203 41.9835 33.9403 39.9558 33.9403 37.2678C33.9403 34.0502 36.234 32.2605 39.09 32.2605C40.196 32.2605 41.0337 32.4845 41.4117 32.6805L40.9777 34.3745C40.4096 34.1397 39.8004 34.0207 39.1857 34.0245C37.4917 34.0245 36.1757 35.0465 36.1757 37.1465C36.1757 39.0342 37.2957 40.2218 39.1997 40.2218ZM32.6663 20.9998H30.333V9.33317L41.9997 20.9998H32.6663Z" fill="#0074FF"/>
<path d="M17.6961 33.9805C17.2224 33.9805 16.9144 34.0225 16.7324 34.0645V40.2361C16.9144 40.2781 17.2084 40.2781 17.4721 40.2781C19.4041 40.2921 20.6618 39.2305 20.6618 36.9765C20.6758 35.0165 19.5301 33.9805 17.6961 33.9805Z" fill="#0074FF"/>
</svg>
