<svg width="40" height="41" viewBox="0 0 40 41" fill="none" xmlns="http://www.w3.org/2000/svg">
<path d="M35.7492 11.5645L29.3039 11.252L28.9289 7.04883C28.8508 6.16602 28.0617 5.54883 27.1399 5.61914L4.01487 7.51758C3.09299 7.59571 2.42893 8.33789 2.49924 9.21289L4.15549 27.6348C4.23362 28.5176 5.03049 29.1348 5.94456 29.0645L7.11643 28.9707L6.92893 32.5488C6.88206 33.5332 7.64768 34.3301 8.67893 34.3848L34.4758 35.6113C35.5071 35.6582 36.3586 34.9395 36.4133 33.9551L37.4992 13.3848C37.5461 12.4082 36.7727 11.6113 35.7492 11.5645ZM8.01487 11.9785L7.46018 22.5098L6.10081 24.4395L4.85081 10.5332C4.85081 10.5176 4.85081 10.5098 4.85081 10.4941C4.85081 10.4785 4.85081 10.4707 4.85081 10.4551C4.88987 10.0645 5.18674 9.75196 5.59299 9.72071L25.9836 8.04883C26.3899 8.01758 26.7414 8.28321 26.8039 8.66602C26.8039 8.68164 26.8274 8.68164 26.8274 8.69727C26.8274 8.70508 26.8508 8.71289 26.8508 8.72852L27.0617 11.1348L9.95237 10.3145C8.92112 10.2832 8.06174 11.002 8.01487 11.9785ZM34.1164 30.4863L30.468 26.166L28.3196 23.6113C28.1321 23.3848 27.8274 23.1973 27.4914 23.1816C27.1555 23.166 26.9055 23.2988 26.6242 23.502L25.343 24.4316C25.0696 24.5957 24.8586 24.7051 24.5696 24.6895C24.2883 24.6738 24.0383 24.5645 23.8586 24.3926C23.7961 24.3301 23.6789 24.2207 23.5852 24.127L20.2414 20.3066C19.9992 20.002 19.6008 19.8066 19.1633 19.7832C18.718 19.7598 18.2883 19.9473 18.0071 20.2207L10.1086 28.7207L9.57737 29.2988L9.60081 28.7676L10.1321 18.6973L10.3899 13.7832C10.3899 13.7676 10.3899 13.752 10.3899 13.7441C10.3899 13.7285 10.3899 13.7129 10.3899 13.7051C10.4992 13.2832 10.8742 12.9785 11.3196 13.002L27.2727 13.7676L29.5149 13.877L34.0696 14.0957C34.5227 14.1191 34.8742 14.4629 34.8821 14.8926C34.8821 14.9082 34.9055 14.916 34.9055 14.9316C34.9055 14.9473 34.9289 14.9551 34.9289 14.9707L34.1164 30.4863Z" fill="#0074FF"/>
<path d="M29.1563 21.1035C30.6719 21.1035 31.9062 19.8691 31.9062 18.3535C31.9062 16.8379 30.6797 15.6035 29.1563 15.6035C27.6406 15.6035 26.4062 16.8301 26.4062 18.3535C26.4062 19.877 27.6328 21.1035 29.1563 21.1035Z" fill="#0074FF"/>
</svg>
