<svg width="42" height="43" viewBox="0 0 42 43" fill="none" xmlns="http://www.w3.org/2000/svg">
<path d="M21 29.375C19.4425 29.375 17.9199 28.9131 16.6249 28.0478C15.3298 27.1825 14.3205 25.9526 13.7245 24.5136C13.1284 23.0747 12.9725 21.4913 13.2763 19.9637C13.5802 18.4361 14.3302 17.0329 15.4315 15.9315C16.5329 14.8302 17.9361 14.0802 19.4637 13.7763C20.9913 13.4725 22.5747 13.6284 24.0136 14.2245C25.4526 14.8205 26.6825 15.8298 27.5478 17.1249C28.4131 18.4199 28.875 19.9425 28.875 21.5C28.875 23.5886 28.0453 25.5916 26.5685 27.0685C25.0916 28.5453 23.0886 29.375 21 29.375ZM21 16.25C19.9617 16.25 18.9466 16.5579 18.0833 17.1348C17.2199 17.7117 16.547 18.5316 16.1496 19.4909C15.7523 20.4502 15.6483 21.5058 15.8509 22.5242C16.0535 23.5426 16.5535 24.4781 17.2877 25.2123C18.0219 25.9465 18.9574 26.4466 19.9758 26.6491C20.9942 26.8517 22.0498 26.7477 23.0091 26.3504C23.9684 25.953 24.7883 25.2801 25.3652 24.4167C25.9421 23.5534 26.25 22.5384 26.25 21.5C26.25 20.1076 25.6969 18.7723 24.7123 17.7877C23.7277 16.8031 22.3924 16.25 21 16.25Z" fill="#0074FF"/>
<path d="M27.5625 41.1875H14.4375C13.0451 41.1875 11.7098 40.6344 10.7252 39.6498C9.74062 38.6653 9.1875 37.3299 9.1875 35.9375V32.5906C9.18986 32.33 9.26976 32.076 9.41702 31.8609C9.56428 31.6459 9.77223 31.4796 10.0144 31.3831L14.7919 29.4669C14.9538 29.3951 15.1286 29.3568 15.3057 29.3544C15.4829 29.3519 15.6587 29.3854 15.8225 29.4527C15.9864 29.52 16.1349 29.6198 16.2592 29.746C16.3835 29.8722 16.4809 30.0223 16.5456 30.1872C16.6103 30.3521 16.641 30.5284 16.6358 30.7055C16.6305 30.8826 16.5895 31.0567 16.5152 31.2175C16.4408 31.3783 16.3347 31.5224 16.2032 31.6411C16.0717 31.7598 15.9175 31.8506 15.75 31.9081L11.8125 33.4831V35.9375C11.8125 36.6337 12.0891 37.3014 12.5813 37.7937C13.0736 38.2859 13.7413 38.5625 14.4375 38.5625H27.5625C28.2587 38.5625 28.9264 38.2859 29.4187 37.7937C29.9109 37.3014 30.1875 36.6337 30.1875 35.9375V33.4831L26.25 31.9081C25.9263 31.7793 25.667 31.5272 25.5291 31.2072C25.3913 30.8872 25.3862 30.5256 25.515 30.2019C25.6438 29.8782 25.8959 29.6188 26.2159 29.481C26.5359 29.3432 26.8975 29.3381 27.2213 29.4669L31.9987 31.3831C32.2409 31.4796 32.4488 31.6459 32.5961 31.8609C32.7434 32.076 32.8233 32.33 32.8256 32.5906V35.9375C32.8256 36.6281 32.6894 37.3118 32.4247 37.9496C32.1601 38.5875 31.7722 39.1668 31.2833 39.6545C30.7944 40.1421 30.2141 40.5286 29.5756 40.7917C28.9371 41.0547 28.253 41.1892 27.5625 41.1875Z" fill="#0074FF"/>
<path d="M11.8125 14.9375C10.5146 14.9375 9.24577 14.5526 8.16657 13.8315C7.08738 13.1104 6.24624 12.0855 5.74954 10.8864C5.25284 9.68722 5.12288 8.36772 5.3761 7.09472C5.62932 5.82172 6.25433 4.6524 7.17211 3.73461C8.0899 2.81683 9.25922 2.19182 10.5322 1.9386C11.8052 1.68538 13.1247 1.81534 14.3239 2.31204C15.523 2.80874 16.5479 3.64988 17.269 4.72907C17.9901 5.80827 18.375 7.07706 18.375 8.375C18.375 9.2368 18.2053 10.0902 17.8755 10.8864C17.5457 11.6826 17.0623 12.406 16.4529 13.0154C15.8435 13.6248 15.1201 14.1082 14.3239 14.438C13.5277 14.7678 12.6743 14.9375 11.8125 14.9375ZM11.8125 4.4375C11.0337 4.4375 10.2725 4.66843 9.62494 5.10109C8.97743 5.53375 8.47275 6.1487 8.17473 6.86819C7.87671 7.58767 7.79873 8.37937 7.95066 9.14317C8.10259 9.90697 8.4776 10.6086 9.02827 11.1592C9.57894 11.7099 10.2805 12.0849 11.0443 12.2368C11.8081 12.3888 12.5998 12.3108 13.3193 12.0128C14.0388 11.7148 14.6538 11.2101 15.0864 10.5626C15.5191 9.91504 15.75 9.15377 15.75 8.375C15.75 7.33071 15.3352 6.32919 14.5967 5.59077C13.8583 4.85235 12.8568 4.4375 11.8125 4.4375Z" fill="#0074FF"/>
<path d="M10.5 25.9495H6.5625C5.17011 25.9495 3.83476 25.3963 2.85019 24.4118C1.86562 23.4272 1.3125 22.0918 1.3125 20.6995V18.4026C1.31225 18.1397 1.39093 17.8828 1.53836 17.6652C1.68578 17.4476 1.89516 17.2792 2.13938 17.182L6.32625 15.5413C6.64511 15.4148 7.00085 15.4181 7.31731 15.5505C7.63376 15.683 7.88577 15.9341 8.01938 16.2501C8.08331 16.4104 8.11501 16.5817 8.11266 16.7542C8.11032 16.9268 8.07397 17.0971 8.0057 17.2556C7.93743 17.4141 7.83858 17.5576 7.71481 17.6778C7.59104 17.798 7.44477 17.8927 7.28438 17.9563L3.9375 19.2951V20.6995C3.9375 21.3956 4.21406 22.0633 4.70635 22.5556C5.19863 23.0479 5.86631 23.3245 6.5625 23.3245H10.5C10.8481 23.3245 11.1819 23.4627 11.4281 23.7089C11.6742 23.955 11.8125 24.2889 11.8125 24.637C11.8125 24.9851 11.6742 25.3189 11.4281 25.565C11.1819 25.8112 10.8481 25.9495 10.5 25.9495Z" fill="#0074FF"/>
<path d="M30.1875 14.9375C28.8896 14.9375 27.6208 14.5526 26.5416 13.8315C25.4624 13.1104 24.6212 12.0855 24.1245 10.8864C23.6278 9.68722 23.4979 8.36772 23.7511 7.09472C24.0043 5.82172 24.6293 4.6524 25.5471 3.73461C26.4649 2.81683 27.6342 2.19182 28.9072 1.9386C30.1802 1.68538 31.4997 1.81534 32.6989 2.31204C33.898 2.80874 34.9229 3.64988 35.644 4.72907C36.3651 5.80827 36.75 7.07706 36.75 8.375C36.75 10.1155 36.0586 11.7847 34.8279 13.0154C33.5972 14.2461 31.928 14.9375 30.1875 14.9375ZM30.1875 4.4375C29.4087 4.4375 28.6475 4.66843 27.9999 5.10109C27.3524 5.53375 26.8477 6.1487 26.5497 6.86819C26.2517 7.58767 26.1737 8.37937 26.3257 9.14317C26.4776 9.90697 26.8526 10.6086 27.4033 11.1592C27.9539 11.7099 28.6555 12.0849 29.4193 12.2368C30.1831 12.3888 30.9748 12.3108 31.6943 12.0128C32.4138 11.7148 33.0288 11.2101 33.4614 10.5626C33.8941 9.91504 34.125 9.15377 34.125 8.375C34.125 7.33071 33.7102 6.32919 32.9717 5.59077C32.2333 4.85235 31.2318 4.4375 30.1875 4.4375Z" fill="#0074FF"/>
<path d="M35.4375 25.9494H31.5C31.1519 25.9494 30.8181 25.8111 30.5719 25.565C30.3258 25.3188 30.1875 24.985 30.1875 24.6369C30.1875 24.2888 30.3258 23.9549 30.5719 23.7088C30.8181 23.4627 31.1519 23.3244 31.5 23.3244H35.4375C36.1337 23.3244 36.8014 23.0478 37.2937 22.5555C37.7859 22.0632 38.0625 21.3956 38.0625 20.6994V19.295L34.7156 17.9825C34.5552 17.9189 34.409 17.8242 34.2852 17.704C34.1614 17.5837 34.0626 17.4403 33.9943 17.2818C33.926 17.1233 33.8897 16.9529 33.8873 16.7804C33.885 16.6078 33.9167 16.4365 33.9806 16.2762C34.1067 15.9531 34.3556 15.6931 34.6728 15.5529C34.9901 15.4127 35.3499 15.4038 35.6738 15.5281L39.8606 17.1687C40.1048 17.266 40.3142 17.4344 40.4616 17.652C40.6091 17.8696 40.6878 18.1265 40.6875 18.3894V20.6862C40.6892 21.3768 40.5547 22.0609 40.2916 22.6994C40.0286 23.3378 39.6421 23.9181 39.1545 24.407C38.6668 24.8959 38.0874 25.2838 37.4496 25.5485C36.8118 25.8131 36.128 25.9494 35.4375 25.9494Z" fill="#0074FF"/>
</svg>
