<svg width="42" height="43" viewBox="0 0 42 43" fill="none" xmlns="http://www.w3.org/2000/svg">
<path d="M22.8552 14.3952L25.3315 16.8714C26.4691 18.009 27.3715 19.3594 27.9872 20.8458C28.6029 22.3321 28.9198 23.9251 28.9198 25.5339C28.9198 27.1427 28.6029 28.7358 27.9872 30.2221C27.3715 31.7084 26.4691 33.0589 25.3315 34.1964L24.712 34.8142C22.4145 37.1116 19.2985 38.4023 16.0495 38.4023C12.8004 38.4023 9.68439 37.1116 7.38695 34.8142C5.08952 32.5167 3.79883 29.4007 3.79883 26.1517C3.79883 22.9026 5.08952 19.7866 7.38695 17.4892L9.8632 19.9654C9.04485 20.7766 8.39478 21.7415 7.95033 22.8046C7.50587 23.8678 7.27578 25.0082 7.27325 26.1605C7.27073 27.3128 7.49583 28.4542 7.93562 29.5193C8.37542 30.5843 9.02125 31.552 9.83605 32.3668C10.6508 33.1816 11.6185 33.8275 12.6836 34.2673C13.7487 34.7071 14.8901 34.9322 16.0424 34.9296C17.1947 34.9271 18.3351 34.697 19.3982 34.2526C20.4614 33.8081 21.4262 33.158 22.2375 32.3397L22.857 31.7202C24.4973 30.0793 25.4188 27.8541 25.4188 25.5339C25.4188 23.2137 24.4973 20.9885 22.857 19.3477L20.3807 16.8714L22.857 14.3969L22.8552 14.3952ZM34.6117 24.9144L32.1372 22.4399C32.9556 21.6287 33.6056 20.6638 34.0501 19.6007C34.4945 18.5376 34.7246 17.3972 34.7271 16.2449C34.7297 15.0926 34.5046 13.9511 34.0648 12.8861C33.625 11.821 32.9792 10.8533 32.1644 10.0385C31.3496 9.22373 30.3819 8.5779 29.3168 8.1381C28.2517 7.6983 27.1103 7.4732 25.958 7.47573C24.8057 7.47825 23.6653 7.70834 22.6022 8.1528C21.539 8.59726 20.5742 9.24732 19.763 10.0657L19.1435 10.6852C17.5031 12.326 16.5816 14.5512 16.5816 16.8714C16.5816 19.1916 17.5031 21.4168 19.1435 23.0577L21.6197 25.5339L19.1435 28.0084L16.669 25.5339C15.5313 24.3964 14.6289 23.0459 14.0132 21.5596C13.3975 20.0733 13.0806 18.4802 13.0806 16.8714C13.0806 15.2626 13.3975 13.6696 14.0132 12.1833C14.6289 10.6969 15.5313 9.34646 16.669 8.20893L17.2885 7.59118C19.5859 5.29374 22.7019 4.00305 25.951 4.00305C29.2 4.00305 32.316 5.29374 34.6134 7.59118C36.9109 9.88862 38.2016 13.0046 38.2016 16.2537C38.2016 19.5027 36.9109 22.6187 34.6134 24.9162L34.6117 24.9144Z" fill="#0074FF"/>
</svg>
