<svg width="48" height="49" viewBox="0 0 48 49" fill="none" xmlns="http://www.w3.org/2000/svg">
<path d="M16.8008 32C17.4008 33.8 19.0508 35 21.0008 35" stroke="#0074FF" stroke-width="3" stroke-miterlimit="10" stroke-linecap="round" stroke-linejoin="round"/>
<path d="M19.5 26V29" stroke="#0074FF" stroke-width="3" stroke-miterlimit="10" stroke-linecap="round" stroke-linejoin="round"/>
<path d="M28.5 26V29" stroke="#0074FF" stroke-width="3" stroke-miterlimit="10" stroke-linecap="round" stroke-linejoin="round"/>
<path d="M26.8505 5.4502C30.3005 8.3002 31.5005 13.2502 29.4005 17.3002C27.4505 21.0502 22.8005 22.4002 19.2005 20.4502C16.2005 18.9502 15.1505 15.2002 16.6505 12.2002C17.8505 9.8002 20.8505 8.9002 23.2505 10.1002C25.2005 11.1502 25.9505 13.4002 24.9005 15.3502" stroke="#0074FF" stroke-width="3" stroke-miterlimit="10" stroke-linecap="round" stroke-linejoin="round"/>
<path d="M17.85 10.7002C13.05 12.6502 9.45 16.7002 8.1 21.6502C6 21.9502 4.5 23.7502 4.5 26.0002C4.5 28.2502 6 30.0502 8.1 30.3502C10.05 37.4002 16.35 42.5002 24 42.5002C31.65 42.5002 37.95 37.4002 39.9 30.3502C42 30.0502 43.5 28.2502 43.5 26.0002C43.5 23.7502 42 21.9502 39.9 21.6502C38.55 16.7002 34.95 12.6502 30.15 10.7002" stroke="#0074FF" stroke-width="3" stroke-miterlimit="10" stroke-linecap="round" stroke-linejoin="round"/>
</svg>
