<svg width="24" height="25" viewBox="0 0 24 25" fill="none" xmlns="http://www.w3.org/2000/svg">
<path d="M20 3.5H4C3.20435 3.5 2.44129 3.81607 1.87868 4.37868C1.31607 4.94129 1 5.70435 1 6.5V18.5C1 19.2956 1.31607 20.0587 1.87868 20.6213C2.44129 21.1839 3.20435 21.5 4 21.5H20C20.7956 21.5 21.5587 21.1839 22.1213 20.6213C22.6839 20.0587 23 19.2956 23 18.5V6.5C23 5.70435 22.6839 4.94129 22.1213 4.37868C21.5587 3.81607 20.7956 3.5 20 3.5ZM19.672 16.12C19.7735 16.207 19.8566 16.3136 19.9162 16.4332C19.9758 16.5529 20.0109 16.6834 20.0192 16.8168C20.0275 16.9503 20.009 17.0841 19.9648 17.2103C19.9205 17.3365 19.8514 17.4525 19.7614 17.5515C19.6715 17.6505 19.5627 17.7304 19.4414 17.7866C19.32 17.8428 19.1886 17.8741 19.055 17.8786C18.9213 17.8832 18.7881 17.8608 18.6633 17.813C18.5384 17.7651 18.4244 17.6927 18.328 17.6L14.185 13.84C13.538 14.2716 12.7777 14.502 12 14.502C11.2223 14.502 10.462 14.2716 9.815 13.84L5.672 17.6C5.4744 17.7694 5.21854 17.8551 4.95878 17.8389C4.69902 17.8226 4.45582 17.7057 4.28085 17.5131C4.10587 17.3204 4.01291 17.0671 4.02172 16.807C4.03052 16.5468 4.1404 16.3004 4.328 16.12L8.284 12.529L4.327 8.93C4.22982 8.84162 4.151 8.73497 4.09504 8.61613C4.03908 8.49728 4.00708 8.36859 4.00086 8.23738C3.98829 7.97239 4.08151 7.71326 4.26 7.517C4.43849 7.32074 4.68763 7.20342 4.95262 7.19086C5.21761 7.17829 5.47674 7.27151 5.673 7.45L10.652 11.979C11.0212 12.3152 11.5026 12.5016 12.002 12.5016C12.5014 12.5016 12.9828 12.3152 13.352 11.979L18.327 7.45C18.5233 7.27151 18.7824 7.17829 19.0474 7.19086C19.3124 7.20342 19.5615 7.32074 19.74 7.517C19.9185 7.71326 20.0117 7.97239 19.9991 8.23738C19.9866 8.50237 19.8693 8.75151 19.673 8.93L15.717 12.53L19.672 16.12Z" fill="#0074FF"/>
</svg>
