<svg width="22" height="23" viewBox="0 0 22 23" fill="none" xmlns="http://www.w3.org/2000/svg">
<g clip-path="url(#clip0_34_9951)">
<path d="M11 1.875C8.995 1.87727 7.07277 2.67477 5.65502 4.09252C4.23727 5.51027 3.43977 7.4325 3.4375 9.4375C3.4375 15.9086 10.3125 20.7984 10.6047 21.0047C10.7218 21.0827 10.8593 21.1243 11 21.1243C11.1407 21.1243 11.2782 21.0827 11.3953 21.0047C11.6875 20.7984 18.5625 15.9086 18.5625 9.4375C18.5602 7.4325 17.7627 5.51027 16.345 4.09252C14.9272 2.67477 13.005 1.87727 11 1.875ZM11 6.6875C11.5439 6.6875 12.0756 6.84878 12.5278 7.15096C12.9801 7.45313 13.3325 7.88262 13.5407 8.38512C13.7488 8.88762 13.8033 9.44055 13.6972 9.974C13.5911 10.5074 13.3291 10.9974 12.9445 11.382C12.5599 11.7666 12.0699 12.0286 11.5365 12.1347C11.0031 12.2408 10.4501 12.1863 9.94762 11.9782C9.44512 11.77 9.01563 11.4176 8.71346 10.9653C8.41128 10.5131 8.25 9.9814 8.25 9.4375C8.25 8.70815 8.53973 8.00868 9.05546 7.49296C9.57118 6.97723 10.2707 6.6875 11 6.6875Z" fill="#0074FF"/>
</g>
<defs>
<clipPath id="clip0_34_9951">
<rect width="22" height="22" fill="white" transform="translate(0 0.5)"/>
</clipPath>
</defs>
</svg>
