<svg width="40" height="41" viewBox="0 0 40 41" fill="none" xmlns="http://www.w3.org/2000/svg">
<path d="M8.33268 2.16675V5.50008H1.66602V33.8334C1.66602 35.1595 2.1928 36.4313 3.13048 37.3689C4.06816 38.3066 5.33993 38.8334 6.66602 38.8334H32.066C33.7267 38.829 35.3181 38.1674 36.4924 36.9931C37.6666 35.8188 38.3283 34.2274 38.3327 32.5667V2.16675H8.33268ZM4.99935 33.8334V8.83342H8.33268V33.8334C8.33268 34.2754 8.15709 34.6994 7.84453 35.0119C7.53197 35.3245 7.10804 35.5001 6.66602 35.5001C6.22399 35.5001 5.80007 35.3245 5.4875 35.0119C5.17494 34.6994 4.99935 34.2754 4.99935 33.8334ZM34.9994 32.5667C34.9994 32.952 34.9235 33.3334 34.7761 33.6893C34.6287 34.0452 34.4126 34.3685 34.1402 34.6409C33.8678 34.9133 33.5444 35.1294 33.1886 35.2768C32.8327 35.4242 32.4512 35.5001 32.066 35.5001H11.366C11.5601 34.9656 11.6615 34.402 11.666 33.8334V5.50008H34.9994V32.5667Z" fill="#0074FF"/>
<path d="M31.6673 8.83325H18.334V12.1666H31.6673V8.83325Z" fill="#0074FF"/>
<path d="M31.6667 15.5H15V18.8333H31.6667V15.5Z" fill="#0074FF"/>
<path d="M31.6667 22.1667H15V25.5001H31.6667V22.1667Z" fill="#0074FF"/>
<path d="M31.6667 28.8333H15V32.1666H31.6667V28.8333Z" fill="#0074FF"/>
</svg>
