<svg width="36" height="36" viewBox="0 0 36 36" fill="none" xmlns="http://www.w3.org/2000/svg">
<g clip-path="url(#clip0_34_7289)">
<path d="M36 18C36 27.9411 27.9411 36 18 36C8.05887 36 0 27.9411 0 18C0 8.05887 8.05887 0 18 0C27.9411 0 36 8.05887 36 18Z" fill="#EFF1F8"/>
<path d="M20.1854 22.7606C21.2891 22.5069 22.3433 22.0658 23.3015 21.4568C24.0234 20.9686 24.2173 19.9815 23.7343 19.2518C23.2704 18.55 22.3459 18.3382 21.6266 18.7679C19.4194 20.1635 16.6149 20.1635 14.4077 18.7679C13.6745 18.3006 12.7068 18.5228 12.2437 19.2622C12.2437 19.264 12.2437 19.2657 12.242 19.2666C11.7797 20.0078 11.9996 20.987 12.7327 21.4542L12.7345 21.456C13.6909 22.0641 14.7443 22.506 15.8471 22.758L12.8479 25.79C12.2359 26.3982 12.2246 27.3913 12.8236 28.01L12.8496 28.0362C13.1474 28.346 13.5507 28.5 13.9523 28.5C14.3549 28.5 14.7573 28.346 15.056 28.0362L18.0171 25.0576L20.9636 28.038C21.5868 28.6461 22.5822 28.6295 23.1847 27.9986C23.7716 27.3835 23.7716 26.4078 23.1847 25.7935L20.1854 22.7606ZM18.0171 18.34C20.9774 18.3365 23.3751 15.9126 23.3794 12.9209C23.3794 9.93261 20.9731 7.5 18.0171 7.5C15.0611 7.5 12.6548 9.93261 12.6548 12.9226C12.6592 15.9152 15.0577 18.3391 18.0171 18.3408V18.34ZM18.0171 10.6773C19.2428 10.679 20.2356 11.6836 20.2365 12.9217C20.2365 14.1608 19.2428 15.1644 18.0171 15.1662C16.7923 15.1644 15.7995 14.1616 15.7969 12.9226C15.7986 11.6827 16.7923 10.679 18.0171 10.6764V10.6773Z" fill="#212540"/>
</g>
<defs>
<clipPath id="clip0_34_7289">
<rect width="36" height="36" fill="white"/>
</clipPath>
</defs>
</svg>
