<svg width="18" height="19" viewBox="0 0 18 19" fill="none" xmlns="http://www.w3.org/2000/svg">
<g clip-path="url(#clip0_34_9945)">
<path d="M17.9719 14.1052L17.1545 17.6489C17.0397 18.1499 16.5994 18.5004 16.0836 18.5004C7.21406 18.4997 0 11.2857 0 2.41573C0 1.90034 0.350473 1.45948 0.851484 1.34523L4.39523 0.527844C4.91133 0.408242 5.43867 0.676133 5.65313 1.16487L7.28859 4.97933C7.47977 5.42863 7.35082 5.9521 6.97289 6.26077L5.08008 7.78058C6.27469 10.2141 8.25328 12.1927 10.6875 13.388L12.2372 11.4966C12.5426 11.1176 13.07 10.9865 13.5193 11.1811L17.3338 12.8162C17.7926 13.0575 18.0914 13.5919 17.9719 14.1052Z" fill="#0074FF"/>
</g>
<defs>
<clipPath id="clip0_34_9945">
<rect width="18" height="18" fill="white" transform="translate(0 0.5)"/>
</clipPath>
</defs>
</svg>
