<svg width="42" height="43" viewBox="0 0 42 43" fill="none" xmlns="http://www.w3.org/2000/svg">
<g clip-path="url(#clip0_34_6526)">
<path d="M21 37.25C29.6985 37.25 36.75 30.1985 36.75 21.5C36.75 12.8015 29.6985 5.75 21 5.75C12.3015 5.75 5.25 12.8015 5.25 21.5C5.25 30.1985 12.3015 37.25 21 37.25Z" stroke="#0074FF" stroke-width="3" stroke-linecap="round" stroke-linejoin="round"/>
<path d="M21.4688 30.0312C21.4688 30.2901 21.2589 30.5 21 30.5C20.7411 30.5 20.5312 30.2901 20.5312 30.0312C20.5312 29.7724 20.7411 29.5625 21 29.5625C21.2589 29.5625 21.4688 29.7724 21.4688 30.0312Z" fill="black" stroke="#0074FF" stroke-width="3"/>
<path d="M21 24.125V22.8125C21.9086 22.8125 22.7967 22.5431 23.5522 22.0383C24.3076 21.5335 24.8964 20.8161 25.2441 19.9767C25.5918 19.1373 25.6827 18.2137 25.5055 17.3226C25.3282 16.4315 24.8907 15.6129 24.2483 14.9705C23.6058 14.328 22.7873 13.8905 21.8962 13.7133C21.0051 13.536 20.0814 13.627 19.242 13.9747C18.4027 14.3224 17.6852 14.9112 17.1804 15.6666C16.6757 16.422 16.4062 17.3102 16.4062 18.2188" stroke="#0074FF" stroke-width="3" stroke-linecap="round" stroke-linejoin="round"/>
</g>
<defs>
<clipPath id="clip0_34_6526">
<rect width="42" height="42" fill="white" transform="translate(0 0.5)"/>
</clipPath>
</defs>
</svg>
