<svg width="36" height="36" viewBox="0 0 36 36" fill="none" xmlns="http://www.w3.org/2000/svg">
<path d="M36 18C36 27.9411 27.9411 36 18 36C8.05887 36 0 27.9411 0 18C0 8.05887 8.05887 0 18 0C27.9411 0 36 8.05887 36 18Z" fill="#21AAF8"/>
<path d="M9.96559 16.6715C9.96559 16.6715 16.9314 13.8127 19.3473 12.8061C20.2734 12.4035 23.4141 11.115 23.4141 11.115C23.4141 11.115 24.8636 10.5513 24.7428 11.9203C24.7026 12.484 24.3805 14.457 24.0583 16.591C23.5752 19.6109 23.0517 22.9126 23.0517 22.9126C23.0517 22.9126 22.9712 23.8387 22.2867 23.9998C21.6022 24.1608 20.4748 23.4361 20.2734 23.275C20.1124 23.1542 17.2536 21.3423 16.2067 20.4565C15.9248 20.2149 15.6027 19.7317 16.2469 19.168C17.6965 17.8392 19.4279 16.1884 20.4748 15.1415C20.9579 14.6583 21.4411 13.5309 19.4279 14.8999C16.5691 16.8729 13.7505 18.7251 13.7505 18.7251C13.7505 18.7251 13.1063 19.1277 11.8983 18.7653C10.6904 18.4029 9.28109 17.9198 9.28109 17.9198C9.28109 17.9198 8.31473 17.3158 9.96559 16.6715Z" fill="white"/>
</svg>
