<svg width="42" height="43" viewBox="0 0 42 43" fill="none" xmlns="http://www.w3.org/2000/svg">
<path d="M36.75 13.8V36.2C36.75 36.7799 36.2799 37.25 35.7 37.25H13.3C12.7201 37.25 12.25 36.7799 12.25 36.2V13.8C12.25 13.2201 12.7201 12.75 13.3 12.75H35.7C36.2799 12.75 36.75 13.2201 36.75 13.8Z" stroke="#0074FF" stroke-width="2.4" stroke-linecap="round" stroke-linejoin="round"/>
<path d="M31.5 7.5H8.05C7.4701 7.5 7 7.9701 7 8.55V32" stroke="#0074FF" stroke-width="2.4" stroke-linecap="round" stroke-linejoin="round"/>
<path d="M22.5902 20.7041C21.8904 20.2843 21 20.7883 21 21.6045V28.3955C21 29.2117 21.8904 29.7157 22.5902 29.2959L28.2494 25.9004C28.9291 25.4926 28.9291 24.5074 28.2494 24.0996L22.5902 20.7041Z" stroke="#0074FF" stroke-width="2.4" stroke-linecap="round" stroke-linejoin="round"/>
</svg>
