<svg width="36" height="36" viewBox="0 0 36 36" fill="none" xmlns="http://www.w3.org/2000/svg">
<path d="M36 18C36 27.9411 27.9411 36 18 36C8.05887 36 0 27.9411 0 18C0 8.05887 8.05887 0 18 0C27.9411 0 36 8.05887 36 18Z" fill="#0077FF"/>
<path d="M19.3485 25C12.8569 25 9.15428 20.4955 9 13H12.2517C12.3585 18.5015 14.7557 20.8318 16.6545 21.3123V13H19.7165V17.7447C21.5916 17.5405 23.5613 15.3784 24.2259 13H27.2878C26.7775 15.9309 24.6414 18.0931 23.1223 18.982C24.6414 19.7027 27.0743 21.5886 28 25H24.6295C23.9056 22.7177 22.1019 20.952 19.7165 20.7117V25H19.3485Z" fill="white"/>
</svg>
